<svg width="28" height="28" viewBox="0 0 28 28" fill="none" xmlns="http://www.w3.org/2000/svg">
<path d="M25.5236 7.45176C25.3641 7.28449 25.1428 7.18971 24.9115 7.18971H19.8776V6.34385C19.8776 3.07896 17.2215 0.422852 13.9566 0.422852H13.1108C9.84589 0.422852 7.18979 3.07896 7.18979 6.34385V7.18971H2.15595C1.92466 7.18971 1.70328 7.28449 1.54386 7.45176C1.38402 7.61924 1.30018 7.84475 1.31092 8.07583L2.07995 24.2274C2.14479 25.583 3.25787 26.6444 4.61463 26.6444H22.4528C23.8095 26.6444 24.9226 25.583 24.9875 24.2274L25.7565 8.07583C25.7672 7.84475 25.6834 7.61924 25.5236 7.45176ZM8.8815 6.34385C8.8815 4.01175 10.7789 2.11457 13.1108 2.11457H13.9566C16.2885 2.11457 18.1859 4.01175 18.1859 6.34385V7.18971H8.8815V6.34385ZM23.2974 24.1473C23.2759 24.5987 22.905 24.9527 22.4528 24.9527H4.61463C4.16238 24.9527 3.79149 24.5987 3.77001 24.1473L3.0431 8.88142H7.18979V11.8419C7.18979 12.309 7.56852 12.6878 8.03564 12.6878C8.50276 12.6878 8.8815 12.309 8.8815 11.8419V8.88142H18.1859V11.8419C18.1859 12.309 18.5647 12.6878 19.0318 12.6878C19.4989 12.6878 19.8776 12.309 19.8776 11.8419V8.88142H24.0243L23.2974 24.1473Z" fill="#111111"/>
<path d="M8.5048 14.9463C8.45854 14.9165 8.41187 14.8872 8.36107 14.8657C8.30614 14.8447 8.25534 14.8277 8.20041 14.8195C7.92575 14.7645 7.63375 14.8533 7.43922 15.052C7.27856 15.2085 7.18976 15.4241 7.18976 15.6484C7.18976 15.7624 7.21082 15.8681 7.25295 15.9738C7.29549 16.0754 7.35868 16.1684 7.43922 16.2448C7.51521 16.3249 7.60856 16.3885 7.70975 16.4306C7.81548 16.4732 7.92121 16.4942 8.03562 16.4942C8.25988 16.4942 8.47548 16.4054 8.63201 16.2448C8.71214 16.1684 8.77574 16.0754 8.81787 15.9738C8.86041 15.8681 8.88147 15.7624 8.88147 15.6484C8.88147 15.4241 8.79267 15.2085 8.63201 15.052C8.5936 15.0099 8.55147 14.976 8.5048 14.9463Z" fill="#111111"/>
<path d="M19.814 15.3225C19.793 15.2717 19.7632 15.2255 19.7339 15.1788C19.7042 15.1325 19.6703 15.09 19.6282 15.052C19.4336 14.8533 19.1416 14.7645 18.8666 14.8195C18.8116 14.8277 18.7567 14.8447 18.7059 14.8657C18.6551 14.8872 18.6088 14.9165 18.5622 14.9463C18.5159 14.976 18.4734 15.0099 18.4354 15.052C18.3932 15.09 18.3594 15.1325 18.3296 15.1788C18.2958 15.2255 18.2706 15.2717 18.2491 15.3225C18.228 15.3774 18.2111 15.4282 18.2028 15.4832C18.19 15.5385 18.1859 15.5934 18.1859 15.6484C18.1859 15.7624 18.207 15.8681 18.2491 15.9738C18.2916 16.0754 18.3548 16.1684 18.4354 16.2448C18.4734 16.2869 18.5159 16.3208 18.5622 16.3505C18.6088 16.3844 18.6551 16.4096 18.7059 16.4306C18.7567 16.4517 18.8116 16.4686 18.8666 16.4773C18.9219 16.4901 18.9768 16.4942 19.0318 16.4942C19.0867 16.4942 19.1416 16.4901 19.1966 16.4773C19.2515 16.4686 19.3064 16.4517 19.3572 16.4306C19.4039 16.4096 19.4547 16.3844 19.501 16.3505C19.5476 16.3208 19.5898 16.2869 19.6282 16.2448C19.7083 16.1684 19.7719 16.0754 19.814 15.9738C19.8566 15.8681 19.8776 15.7624 19.8776 15.6484C19.8776 15.5934 19.869 15.5385 19.8607 15.4832C19.8479 15.4282 19.8351 15.3774 19.814 15.3225Z" fill="#111111"/>
</svg>
