<svg width="9" height="10" viewBox="0 0 9 10" fill="none" xmlns="http://www.w3.org/2000/svg">
<path d="M4.76618 7.27252L7.4988 4.04467C7.59101 3.93493 7.63599 3.79312 7.62387 3.6503C7.61175 3.50747 7.54352 3.37527 7.43413 3.28265C7.32475 3.19002 7.18311 3.14451 7.04024 3.15609C6.89737 3.16767 6.76492 3.2354 6.67188 3.34444L4.35927 6.07634L2.08935 3.30886C1.99815 3.19797 1.86665 3.12782 1.72376 3.11381C1.58087 3.09981 1.43826 3.14309 1.32726 3.23416C1.21626 3.32524 1.14595 3.45664 1.13177 3.59952C1.11759 3.7424 1.16071 3.88506 1.25165 3.99617L3.93387 7.26606C3.98429 7.32737 4.04756 7.37687 4.11921 7.41105C4.19085 7.44524 4.26913 7.46327 4.34851 7.46389C4.42789 7.46451 4.50644 7.44769 4.57861 7.41462C4.65078 7.38155 4.71481 7.33304 4.76618 7.27252Z" fill="black"/>
</svg>
