<svg width="29" height="30" viewBox="0 0 29 30" fill="none" xmlns="http://www.w3.org/2000/svg">
<g clip-path="url(#clip0_1316_106)">
<path d="M14.5 24.9688C14.5 24.9688 3.17188 18.625 3.17188 10.9219C3.17188 9.56012 3.64368 8.24041 4.50703 7.18729C5.37038 6.13418 6.57193 5.41272 7.90725 5.14565C9.24258 4.87859 10.6292 5.08242 11.8312 5.72247C13.0331 6.36251 13.9762 7.39924 14.5 8.65626C15.0238 7.39924 15.9669 6.36251 17.1688 5.72247C18.3708 5.08242 19.7574 4.87859 21.0927 5.14565C22.4281 5.41272 23.6296 6.13418 24.493 7.18729C25.3563 8.24041 25.8281 9.56012 25.8281 10.9219C25.8281 18.625 14.5 24.9688 14.5 24.9688Z" stroke="black" stroke-width="1.8125" stroke-linecap="round" stroke-linejoin="round"/>
</g>
<defs>
<clipPath id="clip0_1316_106">
<rect width="29" height="29" fill="white" transform="translate(0 0.5)"/>
</clipPath>
</defs>
</svg>
