<svg width="16" height="16" viewBox="0 0 16 16" fill="none" xmlns="http://www.w3.org/2000/svg">
<path d="M16 12.0973C16 12.2854 15.9621 12.531 15.8864 12.8341C15.8106 13.1372 15.7311 13.3758 15.6477 13.55C15.4886 13.8984 15.0265 14.2677 14.2614 14.6579C13.5492 15.0133 12.8447 15.1909 12.1477 15.1909C11.9432 15.1909 11.7443 15.1787 11.5511 15.1544C11.358 15.13 11.1402 15.0864 10.8977 15.0237C10.6553 14.961 10.4754 14.9105 10.358 14.8722C10.2405 14.8338 10.0303 14.7624 9.72727 14.6579C9.42424 14.5534 9.23864 14.4907 9.17045 14.4698C8.42803 14.2259 7.76515 13.9367 7.18182 13.6023C6.21212 13.0518 5.21023 12.3011 4.17614 11.35C3.14205 10.3989 2.32576 9.4774 1.72727 8.58553C1.36364 8.04902 1.04924 7.43934 0.784091 6.7565C0.761364 6.69379 0.693182 6.52308 0.579545 6.24437C0.465909 5.96567 0.388258 5.77231 0.346591 5.66431C0.304924 5.55631 0.25 5.39083 0.181818 5.16786C0.113636 4.94489 0.0662879 4.74457 0.0397727 4.56689C0.0132576 4.38922 0 4.20631 0 4.01819C0 3.37716 0.193182 2.72916 0.579545 2.07419C1.00379 1.37045 1.4053 0.945419 1.78409 0.799097C1.97348 0.722452 2.23295 0.649291 2.5625 0.579614C2.89205 0.509936 3.15909 0.475098 3.36364 0.475098C3.4697 0.475098 3.54924 0.485549 3.60227 0.506452C3.73864 0.548259 3.93939 0.813032 4.20455 1.30077C4.28788 1.43316 4.40152 1.62129 4.54545 1.86516C4.68939 2.10903 4.82197 2.33025 4.94318 2.52883C5.06439 2.72742 5.18182 2.9138 5.29545 3.08799C5.31818 3.11587 5.38447 3.20296 5.49432 3.34928C5.60417 3.49561 5.68561 3.61928 5.73864 3.72032C5.79167 3.82135 5.81818 3.92064 5.81818 4.01819C5.81818 4.15754 5.71023 4.33173 5.49432 4.54077C5.27841 4.7498 5.04356 4.94141 4.78977 5.1156C4.53598 5.2898 4.30114 5.47444 4.08523 5.66954C3.86932 5.86463 3.76136 6.02489 3.76136 6.15031C3.76136 6.21302 3.7803 6.29141 3.81818 6.38547C3.85606 6.47954 3.88826 6.55095 3.91477 6.59973C3.94129 6.6485 3.99432 6.73212 4.07386 6.85057C4.15341 6.96902 4.19697 7.03521 4.20455 7.04915C4.7803 8.00373 5.43939 8.82243 6.18182 9.50527C6.92424 10.1881 7.81439 10.7943 8.85227 11.3238C8.86742 11.3308 8.93939 11.3709 9.06818 11.444C9.19697 11.5172 9.28788 11.566 9.34091 11.5904C9.39394 11.6147 9.47159 11.6444 9.57386 11.6792C9.67614 11.714 9.76136 11.7315 9.82955 11.7315C9.96591 11.7315 10.1402 11.6322 10.3523 11.4336C10.5644 11.235 10.7652 11.019 10.9545 10.7856C11.1439 10.5522 11.3523 10.3362 11.5795 10.1376C11.8068 9.93901 11.9962 9.83972 12.1477 9.83972C12.2538 9.83972 12.3617 9.86411 12.4716 9.91288C12.5814 9.96166 12.7159 10.0366 12.875 10.1376C13.0341 10.2386 13.1288 10.2996 13.1591 10.3205C13.3485 10.425 13.5511 10.533 13.767 10.6445C13.983 10.756 14.2235 10.8779 14.4886 11.0103C14.7538 11.1427 14.9583 11.2472 15.1023 11.3238C15.6326 11.5677 15.9205 11.7524 15.9659 11.8778C15.9886 11.9266 16 11.9997 16 12.0973Z" fill="white"/>
</svg>
