<svg width="21" height="21" viewBox="0 0 21 21" fill="none" xmlns="http://www.w3.org/2000/svg">
<path d="M6.89406 8.4985H10.4268C11.3429 8.4985 12.0878 7.75578 12.0878 6.84322C12.0878 5.93154 11.3429 5.1897 10.4268 5.1897H6.89406C5.97886 5.1897 5.23438 5.93154 5.23438 6.84322C5.23394 7.75578 5.97886 8.4985 6.89406 8.4985ZM6.89406 6.0697H10.4268C10.8576 6.0697 11.2078 6.41686 11.2078 6.84322C11.2078 7.27046 10.8571 7.6185 10.4268 7.6185H6.89406C6.46374 7.6185 6.11438 7.27046 6.11438 6.84322C6.11394 6.41686 6.46374 6.0697 6.89406 6.0697Z" fill="#A2D061"/>
<path d="M6.89406 15.759H14.0727C14.9852 15.759 15.7279 15.0194 15.7279 14.1108C15.7279 13.2017 14.9852 12.4617 14.0727 12.4617H6.89406C5.97886 12.4617 5.23438 13.2013 5.23438 14.1108C5.23394 15.0198 5.97886 15.759 6.89406 15.759ZM6.89406 13.3421H14.0727C14.5003 13.3421 14.8479 13.6871 14.8479 14.1112C14.8479 14.5275 14.4929 14.8795 14.0727 14.8795H6.89406C6.47122 14.8795 6.11438 14.5275 6.11438 14.1112C6.11394 13.6871 6.46374 13.3421 6.89406 13.3421Z" fill="#A2D061"/>
<path d="M6.81296 20.9871H14.1346C17.8706 20.9871 20.9273 17.9454 20.948 14.2076L20.9862 9.07412C20.9867 9.04332 20.9832 9.01252 20.977 8.98216L20.9194 8.70276C20.9119 8.66756 20.9004 8.63324 20.8846 8.60068L20.7152 8.24956C20.6862 8.18796 20.6422 8.13428 20.5885 8.09292L20.306 7.87424C20.0402 7.66568 19.6266 7.64588 18.9187 7.62916C18.5068 7.61948 17.7404 7.601 17.582 7.45712C17.3672 7.26044 17.3026 6.77864 17.2207 6.16836L17.1987 6.006C17.024 4.65608 16.9004 4.35732 16.6795 3.90544L16.5893 3.71624C15.6328 1.694 13.1098 0.21428 11.3199 0.00307999C11.3027 0.00131999 11.2856 0 11.2684 0H6.81296C3.05624 0 0 3.04744 0 6.79272V14.2041C0 17.9441 3.05624 20.9871 6.81296 20.9871ZM0.88 6.79272C0.88 3.53232 3.54156 0.88 6.81296 0.88H11.242C12.8036 1.0758 14.9965 2.4068 15.7925 4.08892C15.8268 4.16328 15.8585 4.22884 15.8893 4.29132C16.0596 4.63936 16.1616 4.84968 16.3266 6.12172L16.3491 6.28496C16.4542 7.07212 16.5378 7.6934 16.9893 8.107C17.3923 8.47264 18.1575 8.49068 18.898 8.50828C19.2051 8.51576 19.6698 8.52676 19.7657 8.56768L19.9681 8.72432L20.0688 8.93332L20.1058 9.11372L20.068 14.2014C20.0499 17.4574 17.3879 20.1067 14.1346 20.1067H6.81296C3.54112 20.1067 0.88 17.4588 0.88 14.2036V6.79272Z" fill="#A2D061"/>
</svg>
