<svg width="12" height="8" viewBox="0 0 12 8" fill="none" xmlns="http://www.w3.org/2000/svg">
<path d="M11.25 1C11.25 1.19191 11.1768 1.38391 11.0303 1.53016L5.03027 7.53016C4.88438 7.67734 4.69219 7.75 4.5 7.75C4.30781 7.75 4.11609 7.67676 3.96984 7.53027L0.969844 4.53027C0.823359 4.38438 0.75 4.19219 0.75 4C0.75 3.57156 1.10039 3.25 1.5 3.25C1.69191 3.25 1.88391 3.32324 2.03016 3.46973L4.5 5.94062L9.97031 0.470313C10.1156 0.323359 10.3078 0.25 10.5 0.25C10.9008 0.25 11.25 0.571094 11.25 1Z" fill="white"/>
</svg>
