<svg width="20" height="23" viewBox="0 0 20 23" fill="none" xmlns="http://www.w3.org/2000/svg">
<path d="M10.0013 11.6667C11.155 11.6667 12.2828 11.3246 13.2421 10.6836C14.2014 10.0426 14.9491 9.13156 15.3906 8.06566C15.8321 6.99975 15.9476 5.82687 15.7225 4.69531C15.4975 3.56375 14.9419 2.52435 14.1261 1.70855C13.3103 0.89274 12.2709 0.337169 11.1393 0.112088C10.0078 -0.112992 8.83488 0.00252749 7.76898 0.444039C6.70308 0.88555 5.79204 1.63322 5.15106 2.59251C4.51009 3.5518 4.16797 4.67961 4.16797 5.83334C4.16797 7.38043 4.78255 8.86416 5.87651 9.95813C6.97047 11.0521 8.45421 11.6667 10.0013 11.6667ZM10.0013 1.66667C10.8254 1.66667 11.631 1.91104 12.3162 2.36888C13.0014 2.82672 13.5354 3.47746 13.8508 4.23882C14.1662 5.00018 14.2487 5.83796 14.0879 6.64621C13.9271 7.45447 13.5303 8.1969 12.9476 8.77961C12.3649 9.36233 11.6224 9.75917 10.8142 9.91994C10.0059 10.0807 9.16815 9.9982 8.40679 9.68283C7.64543 9.36747 6.99468 8.83342 6.53685 8.14821C6.07901 7.46301 5.83464 6.65742 5.83464 5.83334C5.83464 4.72827 6.27362 3.66846 7.05502 2.88706C7.83643 2.10566 8.89623 1.66667 10.0013 1.66667Z" fill="#A2D061"/>
<path d="M10.8333 12.0835H9.16667C6.73552 12.0835 4.40394 13.0493 2.68485 14.7683C0.965771 16.4874 0 18.819 0 21.2502C0 21.4712 0.0877975 21.6831 0.244078 21.8394C0.400358 21.9957 0.61232 22.0835 0.833333 22.0835H19.1667C19.3877 22.0835 19.5996 21.9957 19.7559 21.8394C19.9122 21.6831 20 21.4712 20 21.2502C20 18.819 19.0342 16.4874 17.3151 14.7683C15.5961 13.0493 13.2645 12.0835 10.8333 12.0835ZM1.71667 20.4168C1.92158 18.584 2.79459 16.891 4.1689 15.6612C5.54321 14.4314 7.32245 13.751 9.16667 13.7502H10.8333C12.6776 13.751 14.4568 14.4314 15.8311 15.6612C17.2054 16.891 18.0784 18.584 18.2833 20.4168H1.71667Z" fill="#A2D061"/>
</svg>
