<svg width="14" height="16" viewBox="0 0 14 16" fill="none" xmlns="http://www.w3.org/2000/svg">
<g id="Frame" clip-path="url(#clip0_1316_1253)">
<path id="Vector" d="M13.5 2.5H10.9256L9.86312 0.726562C9.56563 0.275844 9.10625 0 8.58125 0H5.41875C4.89375 0 4.40625 0.275844 4.1375 0.726562L3.07437 2.5H0.5C0.222656 2.5 0 2.72281 0 3V3.5C0 3.77813 0.222656 4 0.5 4H1V14C1 15.1047 1.89531 16 3 16H11C12.1047 16 13 15.1047 13 14V4H13.5C13.7781 4 14 3.77813 14 3.5V3C14 2.72281 13.7781 2.5 13.5 2.5ZM5.37187 1.59C5.40312 1.53531 5.46562 1.5 5.53125 1.5H8.46875C8.53516 1.5 8.59766 1.53516 8.62891 1.58984L9.175 2.5H4.825L5.37187 1.59ZM11 14.5H3C2.72384 14.5 2.5 14.2762 2.5 14V4H11.5V14C11.5 14.275 11.275 14.5 11 14.5ZM7 13C7.27637 13 7.5 12.7764 7.5 12.5V6C7.5 5.72363 7.27637 5.5 7 5.5C6.72363 5.5 6.5 5.725 6.5 6V12.5C6.5 12.775 6.725 13 7 13ZM4.5 13C4.775 13 5 12.775 5 12.5V6C5 5.72363 4.77637 5.5 4.5 5.5C4.22363 5.5 4 5.725 4 6V12.5C4 12.775 4.225 13 4.5 13ZM9.5 13C9.77637 13 10 12.7764 10 12.5V6C10 5.72363 9.77637 5.5 9.5 5.5C9.22363 5.5 9 5.725 9 6V12.5C9 12.775 9.225 13 9.5 13Z" fill="#A2D061"/>
</g>
<defs>
<clipPath id="clip0_1316_1253">
<rect width="14" height="16" fill="white"/>
</clipPath>
</defs>
</svg>
