<svg width="132" height="21" viewBox="0 0 132 21" fill="none" xmlns="http://www.w3.org/2000/svg">
<path d="M20.4012 10.3045C20.4012 15.5479 15.997 19.835 10.5183 19.835C5.03951 19.835 0.635366 15.5479 0.635366 10.3045C0.635366 5.06122 5.03951 0.774038 10.5183 0.774038C15.997 0.774038 20.4012 5.06122 20.4012 10.3045Z" stroke="#D0D0CC" stroke-width="1.27073"/>
<ellipse cx="10.4711" cy="10.2597" rx="6.98115" ry="6.74726" fill="black"/>
<path d="M48.3257 10.3045C48.3257 15.5479 43.9216 19.835 38.4428 19.835C32.9641 19.835 28.5599 15.5479 28.5599 10.3045C28.5599 5.06122 32.9641 0.774038 38.4428 0.774038C43.9216 0.774038 48.3257 5.06122 48.3257 10.3045Z" stroke="#D0D0CC" stroke-width="1.27073"/>
<ellipse cx="38.396" cy="10.2597" rx="6.98115" ry="6.74726" fill="#6B6B6B"/>
<path d="M75.0867 10.3045C75.0867 15.5479 70.6826 19.835 65.2038 19.835C59.7251 19.835 55.3209 15.5479 55.3209 10.3045C55.3209 5.06122 59.7251 0.774038 65.2038 0.774038C70.6826 0.774038 75.0867 5.06122 75.0867 10.3045Z" stroke="#D0D0CC" stroke-width="1.27073"/>
<ellipse cx="65.1569" cy="10.2597" rx="6.98115" ry="6.74726" fill="#0B0D10"/>
<path d="M103.012 10.3045C103.012 15.5479 98.6079 19.835 93.1291 19.835C87.6503 19.835 83.2462 15.5479 83.2462 10.3045C83.2462 5.06122 87.6503 0.774038 93.1291 0.774038C98.6079 0.774038 103.012 5.06122 103.012 10.3045Z" stroke="#D0D0CC" stroke-width="1.27073"/>
<ellipse cx="93.082" cy="10.2597" rx="6.98115" ry="6.74726" fill="#91C6EB"/>
<path d="M130.936 10.3045C130.936 15.5479 126.532 19.835 121.053 19.835C115.574 19.835 111.17 15.5479 111.17 10.3045C111.17 5.06122 115.574 0.774038 121.053 0.774038C126.532 0.774038 130.936 5.06122 130.936 10.3045Z" stroke="#D0D0CC" stroke-width="1.27073"/>
<ellipse cx="121.007" cy="10.2597" rx="6.98115" ry="6.74726" fill="#EBEBEB"/>
</svg>
