<svg width="175" height="176" viewBox="0 0 175 176" fill="none" xmlns="http://www.w3.org/2000/svg">
<rect width="175" height="176" rx="87.5" fill="white"/>
<g filter="url(#filter0_f_3961_752)">
<rect x="63" y="63" width="50" height="50.3876" rx="25" fill="#A2D061"/>
</g>
<path d="M63.1001 101.8H56.4001C52.4001 101.8 49.1001 98.6 49.1001 94.7V63.2C49.1001 59.3 52.4001 56.1 56.4001 56.1H100C104 56.1 107.3 59.3 107.3 63.2V69.1H68.5001C65.6001 69.1 63.2001 71.4 63.2001 74.2V101.8H63.1001ZM56.5001 58.1C53.6001 58.1 51.2001 60.4 51.2001 63.2V94.8C51.2001 97.6 53.6001 99.9 56.5001 99.9H61.2001V74.2C61.2001 70.3 64.5001 67.1 68.5001 67.1H105.3V63.2C105.3 60.4 102.9 58.1 100 58.1H56.5001Z" fill="black"/>
<path d="M125.4 119.9C124.1 119.9 121.8 118.6 117.3 115.9C115.3 114.7 112.5 113 111.9 112.9H68.4001C64.4001 112.9 61.1001 109.7 61.1001 105.8V74.2C61.1001 70.3 64.4001 67.1 68.4001 67.1H112C116 67.1 119.3 70.3 119.3 74.2V105.8C119.4 106.4 121.2 109 122.5 110.9C126.4 116.5 127.6 118.4 126.4 119.5C126.2 119.7 125.9 119.9 125.4 119.9ZM68.5001 69.1C65.6001 69.1 63.2001 71.4 63.2001 74.2V105.8C63.2001 108.6 65.6001 110.9 68.5001 110.9H112C113 110.9 114.6 111.9 118.5 114.2C120.3 115.3 123.1 117 124.6 117.7C123.9 116.3 122.1 113.7 121 112.1C118.4 108.3 117.4 106.8 117.4 105.9V74.2C117.4 71.4 115 69.1 112.1 69.1H68.5001Z" fill="black"/>
<path d="M104.3 82.5H75.7002C75.1002 82.5 74.7002 82.1 74.7002 81.5C74.7002 80.9 75.1002 80.5 75.7002 80.5H104.4C105 80.5 105.4 80.9 105.4 81.5C105.4 82.1 104.9 82.5 104.3 82.5Z" fill="black"/>
<path d="M104.3 88.5H75.7002C75.1002 88.5 74.7002 88.1 74.7002 87.5C74.7002 86.9 75.1002 86.5 75.7002 86.5H104.4C105 86.5 105.4 86.9 105.4 87.5C105.4 88.1 104.9 88.5 104.3 88.5Z" fill="black"/>
<path d="M104.3 94.5H75.7002C75.1002 94.5 74.7002 94.1 74.7002 93.5C74.7002 92.9 75.1002 92.5 75.7002 92.5H104.4C105 92.5 105.4 92.9 105.4 93.5C105.4 94.1 104.9 94.5 104.3 94.5Z" fill="black"/>
<defs>
<filter id="filter0_f_3961_752" x="13" y="13" width="150" height="150.388" filterUnits="userSpaceOnUse" color-interpolation-filters="sRGB">
<feFlood flood-opacity="0" result="BackgroundImageFix"/>
<feBlend mode="normal" in="SourceGraphic" in2="BackgroundImageFix" result="shape"/>
<feGaussianBlur stdDeviation="25" result="effect1_foregroundBlur_3961_752"/>
</filter>
</defs>
</svg>
