<?xml version="1.0" encoding="utf-8"?>
<!-- Generator: Adobe Illustrator 28.1.0, SVG Export Plug-In . SVG Version: 6.00 Build 0)  -->
<svg version="1.1" id="Layer_1" xmlns="http://www.w3.org/2000/svg" xmlns:xlink="http://www.w3.org/1999/xlink" x="0px" y="0px"
	 viewBox="0 0 359.18 81.21" style="enable-background:new 0 0 359.18 81.21;" xml:space="preserve">
<style type="text/css">
	.st0{fill:#A2D45E;}
	.st1{fill:#FFFFFF;}
	.st2{fill:#415364;}
</style>
<path class="st0" d="M45.98,9.74c-17.02,0-30.81,13.79-30.81,30.81c0,0.69,0.03,1.37,0.07,2.04l-3.97-0.37
	c-0.26,5.13,2.93,4.1,3.45,4.03c0.3-0.06,0.62-0.12,0.95-0.18c2.6,14.38,15.18,25.29,30.31,25.29c17.02,0,30.81-13.79,30.81-30.81
	S63,9.74,45.98,9.74z"/>
<g>
	<path class="st1" d="M74.58,42.78"/>
	<path class="st1" d="M74.42,42.74l0.16,0.03c-2.33-1.23-3.26-2.65-4.11-4.6c-0.59-1.34-0.98-2.79-1.39-4.26
		c-0.21-0.74-0.41-1.5-0.7-2.26c-0.27-0.76-0.59-1.49-0.93-2.21c-0.7-1.44-1.54-2.82-2.52-4.1c-1.95-2.56-4.42-4.73-7.23-6.34
		c-2.81-1.61-5.97-2.64-9.21-3.02c-3.24-0.37-6.57-0.12-9.72,0.82c-3.16,0.92-6.12,2.5-8.68,4.6c-4.69,3.82-7.86,9.49-8.72,15.54
		l-0.01-0.01c0,0-0.35,1.66-1.54,1.86l0.44-0.07c-2.15,0.34-5.82,1.25-7.95,1.71c-1.82,0.43-1.12,5.36,1.19,4.73
		c1.72-0.47,3.64-1.05,5.62-1.63C44.84,37,72.18,42.29,74.42,42.74z M32.65,24.38c3.29-3.36,8.21-5.91,15.55-5.57
		c2.87,0.23,5.71,1.04,8.28,2.39c2.57,1.35,4.87,3.23,6.73,5.49c0.93,1.13,1.74,2.36,2.43,3.66c0.34,0.65,0.66,1.31,0.93,2
		c0.28,0.67,0.52,1.38,0.77,2.11c0.5,1.45,1,2.95,1.76,4.38c0.36,0.67,0.77,1.33,1.28,1.92c-3.98-0.93-7.99-1.62-12.04-2.17
		c-1.18-0.16-2.36-0.3-3.54-0.43c0.16-0.14,0.31-0.28,0.46-0.43c0.83-0.85,1.47-1.81,2.01-2.8c0.54-0.99,0.99-2.01,1.37-3.05
		c0.38-1.04,0.71-2.09,0.95-3.16c-0.41,1.02-0.89,2-1.41,2.95c-0.52,0.95-1.11,1.86-1.75,2.71c-0.65,0.84-1.37,1.62-2.17,2.22
		c-0.8,0.61-1.88,1.24-3.13,1.2l0,0c-1.54-0.13-3.09-0.23-4.64-0.31c0.15-0.17,0.3-0.34,0.45-0.52c0.97-1.19,1.71-2.47,2.37-3.76
		c0.65-1.3,1.21-2.63,1.71-3.97c0.5-1.34,0.94-2.7,1.31-4.08c-0.58,1.3-1.22,2.57-1.91,3.8c-0.69,1.23-1.43,2.43-2.24,3.57
		c-0.81,1.13-1.69,2.21-2.68,3.09c-0.97,0.88-2.7,1.66-4.07,1.69l0.01,0.01c-1.67-0.03-3.35-0.03-5.03,0
		c0.12-0.15,0.24-0.3,0.35-0.46c1.11-1.5,1.93-3.1,2.65-4.71c0.71-1.62,1.32-3.26,1.84-4.92c0.53-1.66,0.99-3.33,1.37-5.02
		c-0.64,1.6-1.37,3.17-2.14,4.7c-0.78,1.53-1.62,3.02-2.54,4.43c-0.93,1.41-1.94,2.76-3.08,3.86c-0.57,0.55-1.17,1.05-1.78,1.4
		c-0.61,0.36-1.74,0.93-2.27,0.94l0,0c-0.72,0.05-1.43,0.1-2.15,0.16c-0.27,0.02-0.55,0.05-0.82,0.07c0,0,0,0,0,0
		c-0.28,0.02-0.48-0.02-0.65-0.1C27.23,36.97,27.79,29.7,32.65,24.38z"/>
</g>
<g>
	<path class="st1" d="M61.07,51.02c-3.75,5.17-9.87,8.37-16.58,7.95c-8.62-0.54-15.52-6.91-17.39-15.13
		c-0.94,0.16-3.13,0.53-5.77,1.03c2.44,10.78,11.47,19.1,22.78,19.81c8.88,0.56,16.98-3.72,21.87-10.62L61.07,51.02z"/>
</g>
<path class="st2" d="M334.09,32.47c1.01,1.63,1.58,3.83,1.58,6.54c0,7.55-4.17,10.37-9.97,10.37c-1.75,0-3.32-0.28-4.73-0.85
	c-0.45,1.07-0.73,2.08-0.73,3.04c0,1.92,0.96,3.04,4.28,3.04h8.62c4.23,0,6.25,1.48,6.25,4.97c0,6.03-4.96,9.97-13.18,9.97
	c-6.65,0-11.04-3.1-11.04-5.58c0-0.79,0.56-1.75,1.35-2.31c1.86,2.31,4.9,4.17,9.58,4.17c5.97,0,9.46-2.25,9.46-5.69
	c0-1.52-0.85-1.87-3.38-1.87h-8.39c-5.41,0-7.38-2.03-7.38-5.41c0-2.2,1.07-4.39,2.14-5.97c-1.69-1.63-2.65-4.22-2.65-7.89
	c0-7.21,4.28-10.48,10.03-10.48c2.31,0,4.34,0.51,5.91,1.64c0.28-0.57,0.96-1.07,2.03-1.07h3.68c0.22,0.28,0.39,0.79,0.39,1.52
	c0,0.96-0.28,1.86-2.03,1.86H334.09z M325.75,45.93c3.32,0,5.58-1.75,5.58-6.82c0-4.84-2.03-6.99-5.35-6.99
	c-3.49,0-5.8,2.25-5.8,6.99C320.17,44.19,322.37,45.93,325.75,45.93z"/>
<path class="st2" d="M249.27,32.81c0,1.07-0.39,1.91-1.01,2.25c-1.24-1.13-4.51-2.2-8.39-2.2c-3.94,0-5.41,1.63-5.41,3.55
	c0,2.37,1.97,3.38,6.48,4.23c6.59,1.13,9.3,3.49,9.3,8.28c0,4.96-3.32,7.89-10.03,7.89c-6.09,0-10.25-2.31-10.25-4.34
	c0-1.18,0.28-1.8,0.9-2.37c1.63,1.24,5.75,2.82,9.07,2.82c4.73,0,6.37-1.8,6.37-3.94c0-2.54-1.75-3.66-6.37-4.51
	c-6.82-1.18-9.35-3.27-9.35-8.28c0-4.34,3.16-7.66,9.41-7.66C246.17,28.52,249.27,30.95,249.27,32.81z"/>
<path class="st2" d="M285.41,29.09c-2.25,0-2.53,0.63-2.53,1.76c0,0.68,0.11,1.13,0.28,1.52l0.86,0.07c0.79,0,1.16,0.65,1.16,1.61
	c0,3.89-2.59,11.21-6.31,16.23l-6.42-19.1c-0.39-1.18-1.35-2.08-2.87-2.08c-2.37,0-3.05,0.76-3.05,1.95c0,0.62,0.11,1.07,0.28,1.46
	l0.74,0.03c0.68,0,1.01,0.56,1.01,1.29c0,3.32-3.1,11.21-6.48,16.34l-5.97-18.76c-0.56-1.52-1.47-2.31-3.55-2.31
	c-0.37,0-0.7,0.01-1.01,0.04c-0.35,0.08-0.72,0.21-0.33,1.17c0,0.01,0,0.01,0.01,0.02c0.29,0.8,0.63,1.77,1.01,2.97
	c0.03,0.08,1.83,5.55,1.83,5.55l0,0l5.54,16.95c0.34,0.28,0.84,0.45,1.63,0.45c1.24,0,1.97-0.67,3.16-2.59
	c2.53-4.17,5.13-10.14,6.48-15.49l6.14,17.69c0.39,0.28,0.79,0.39,1.52,0.39c1.41,0,2.2-1.13,3.27-2.7
	c3.72-5.52,7.55-14.98,7.55-20.22C289.35,30.55,288.23,29.09,285.41,29.09z"/>
<path class="st0" d="M94.66,43.12c0.11,6.42,3.49,9.75,8.22,9.75c4,0,7.49-1.52,8.79-2.54c0.56,0.34,0.96,0.9,0.96,1.86
	c0,1.02-0.39,1.58-0.96,1.97c-1.52,1.13-4.23,2.65-9.13,2.65c-7.27,0-12.06-5.58-12.06-14.03c0-9.52,5.97-14.25,12.28-14.25
	c6.82,0,10.14,5.13,10.14,11.72c0,1.07-0.11,2.14-0.39,2.87H94.66z M94.89,40.02h14.2c0-4.51-1.97-7.66-6.42-7.66
	C99.05,32.36,95.73,34.84,94.89,40.02z"/>
<path class="st0" d="M122.2,32.75v15.49c0,3.38,0.58,4.23,2.83,4.23h3.47c0.17,0.39,0.28,0.68,0.28,1.24c0,1.47-0.65,2.53-4.27,2.53
	c-3.72,0-6.42-1.52-6.42-6.98V32.75h-3.32c-0.28-0.39-0.45-0.9-0.45-1.58c0-1.3,0.4-2.08,1.86-2.08h1.92v-4.32
	c0.39-0.22,1.3-0.45,2.2-0.45c1.13,0,1.91,0.56,1.91,1.86v2.91h6.27c0.28,0.28,0.4,0.73,0.4,1.46c0,0.9-0.28,2.2-2.14,2.2H122.2z"/>
<path class="st0" d="M136.44,23.84v10.09c2.48-3.27,5.97-5.41,9.8-5.41c4.85,0,7.61,2.93,7.61,8.96v14.2c0,1.01,0.45,1.41,1.18,1.41
	h1.69c0.17,0.28,0.28,0.62,0.28,1.24c0,1.13-1.35,1.92-3.94,1.92c-2.14,0-3.49-1.13-3.49-4.17V38.5c0-3.89-1.52-5.63-4.62-5.63
	c-3.1,0-6.48,2.08-8.51,5.29v17.63c-0.4,0.28-1.18,0.45-2.2,0.45c-0.96,0-2.03-0.28-2.03-2.08V22.6c0.45-0.28,1.24-0.51,2.25-0.51
	C135.59,22.09,136.44,22.6,136.44,23.84z"/>
<path class="st0" d="M164.59,33.48v17.8c0,1.07,0.51,1.46,1.3,1.46h0.81c0.22,0.34,0.34,0.73,0.34,1.41c0,1.3-0.24,2.08-2.95,2.08
	c-2.31,0-3.72-1.01-3.72-3.83V34.67c0-1.24-0.56-1.58-1.41-1.58h-0.67c-0.22-0.4-0.34-0.96-0.34-1.69c0-1.63,0.56-2.31,2.64-2.31
	C163.07,29.09,164.59,29.93,164.59,33.48z"/>
<path class="st0" d="M188.35,34.55c-2.53-1.24-3.72-1.75-7.44-1.75c-4.23,0-8.11,2.53-8.11,9.97c0,6.37,3.49,10.09,8.56,10.09
	c3.49,0,6.37-1.24,7.66-2.2c0.45,0.4,0.73,1.07,0.73,1.86c0,1.07-0.62,1.97-1.69,2.59c-1.07,0.62-3.38,1.69-6.93,1.69
	c-7.6,0-12.45-5.41-12.45-14.09c0-10.53,6.31-14.2,12.11-14.2c4.28,0,5.86,0.9,7.44,1.92c0.68,0.39,1.13,0.96,1.18,1.92
	C189.43,32.92,189.03,33.88,188.35,34.55z"/>
<path class="st0" d="M194.3,32.64c0-2.7,5.35-4.11,9.3-4.11c5.07,0,9.46,2.09,9.46,8.17v14.48c0,1.41,0.51,1.97,1.41,1.97h0.8
	c0.17,0.22,0.34,0.73,0.34,1.47c0,1.07-1.41,1.63-2.83,1.63c-2.14,0-3.49-1.58-3.49-3.89v-0.22c-2.76,2.7-6.2,4.68-9.75,4.68
	c-5.01,0-7.44-3.49-7.44-8.39c0-4.4,2.54-7.32,7.66-7.61l9.52-0.56v-2.42c0-4.17-2.76-5.35-5.86-5.35c-3.38,0-6.87,1.01-8.34,1.97
	C194.64,34.05,194.3,33.37,194.3,32.64z M209.28,48.7v-5.3l-9.3,0.9c-2.87,0.28-4,1.75-4,4.17c0,2.48,1.35,4.62,4.17,4.62
	C203.31,53.09,206.13,51.62,209.28,48.7z"/>
<path class="st2" d="M292.41,32.64c0-2.7,5.35-4.11,9.3-4.11c5.07,0,9.46,2.09,9.46,8.17v14.48c0,1.41,0.51,1.97,1.41,1.97h0.8
	c0.17,0.22,0.34,0.73,0.34,1.47c0,1.07-1.41,1.63-2.83,1.63c-2.14,0-3.49-1.58-3.49-3.89v-0.22c-2.76,2.7-6.2,4.68-9.75,4.68
	c-5.01,0-7.44-3.49-7.44-8.39c0-4.4,2.54-7.32,7.66-7.61l9.52-0.56v-2.42c0-4.17-2.76-5.35-5.86-5.35c-3.38,0-6.87,1.01-8.34,1.97
	C292.75,34.05,292.41,33.37,292.41,32.64z M307.39,48.7v-5.3l-9.3,0.9c-2.87,0.28-4,1.75-4,4.17c0,2.48,1.35,4.62,4.17,4.62
	C301.42,53.09,304.24,51.62,307.39,48.7z"/>
<path class="st0" d="M222.15,48.3c0,3.38,0.71,4.28,3.47,4.28h1.68c0.11,0.34,0.17,0.67,0.17,1.3c0,1.18-0.3,2.36-3.26,2.36
	c-4.62,0-6.29-2.08-6.29-6.93V22.66c0.51-0.4,0.96-0.62,2.08-0.62c1.64,0.06,2.14,0.84,2.14,1.92V48.3z"/>
<circle class="st0" cx="161.46" cy="24.43" r="2.96"/>
<g>
	<path class="st2" d="M346.06,31.65c-0.66,0.66-1.45,0.99-2.39,0.99s-1.73-0.33-2.38-0.99c-0.65-0.66-0.98-1.45-0.98-2.39
		c0-0.93,0.33-1.72,0.99-2.38c0.65-0.65,1.45-0.98,2.37-0.98c0.93,0,1.73,0.33,2.39,0.98c0.66,0.65,0.99,1.45,0.99,2.38
		C347.05,30.2,346.72,30.99,346.06,31.65z M341.63,27.22c-0.56,0.57-0.84,1.25-0.84,2.05c0,0.81,0.28,1.5,0.84,2.06
		c0.56,0.57,1.25,0.85,2.05,0.85s1.49-0.28,2.05-0.85c0.56-0.57,0.84-1.26,0.84-2.06c0-0.8-0.28-1.48-0.84-2.05
		c-0.57-0.57-1.25-0.85-2.05-0.85C342.88,26.37,342.19,26.65,341.63,27.22z M343.61,27.41c0.46,0,0.8,0.04,1.01,0.13
		c0.38,0.16,0.57,0.47,0.57,0.94c0,0.33-0.12,0.57-0.36,0.73c-0.13,0.08-0.31,0.14-0.53,0.18c0.29,0.05,0.5,0.17,0.63,0.36
		c0.13,0.2,0.2,0.39,0.2,0.57v0.27c0,0.09,0,0.18,0.01,0.27c0.01,0.1,0.02,0.16,0.03,0.19l0.02,0.05h-0.61
		c0-0.01-0.01-0.02-0.01-0.04s-0.01-0.03-0.01-0.04l-0.01-0.12v-0.29c0-0.43-0.12-0.71-0.35-0.85c-0.14-0.08-0.38-0.12-0.72-0.12
		h-0.51v1.45h-0.65v-3.7H343.61z M344.31,27.99c-0.16-0.09-0.43-0.14-0.79-0.14h-0.56v1.34h0.59c0.28,0,0.48-0.03,0.62-0.08
		c0.25-0.1,0.38-0.29,0.38-0.58C344.56,28.26,344.48,28.08,344.31,27.99z"/>
</g>
</svg>
