<svg width="20" height="20" viewBox="0 0 20 20" fill="none" xmlns="http://www.w3.org/2000/svg">
<path fill-rule="evenodd" clip-rule="evenodd" d="M6.66683 9.16667C4.82588 9.16667 3.3335 7.67428 3.3335 5.83333C3.3335 3.99238 4.82588 2.5 6.66683 2.5C8.50778 2.5 10.0002 3.99238 10.0002 5.83333C10.0002 7.67428 8.50778 9.16667 6.66683 9.16667Z" stroke="#545454" stroke-width="2" stroke-linecap="round" stroke-linejoin="round"/>
<path fill-rule="evenodd" clip-rule="evenodd" d="M13.3333 17.5002C11.4924 17.5002 10 16.0078 10 14.1668C10 12.3259 11.4924 10.8335 13.3333 10.8335C15.1743 10.8335 16.6667 12.3259 16.6667 14.1668C16.6667 16.0078 15.1743 17.5002 13.3333 17.5002Z" stroke="#545454" stroke-width="2" stroke-linecap="round" stroke-linejoin="round"/>
<path d="M1.66675 5.8335H3.33341M9.99746 5.8335H18.3334M18.3334 14.1668H16.6667M10.0027 14.1668H1.66675" stroke="#545454" stroke-width="2" stroke-linecap="round" stroke-linejoin="round"/>
</svg>
