<svg width="24" height="21" viewBox="0 0 24 21" fill="none" xmlns="http://www.w3.org/2000/svg">
<path opacity="0.9" d="M13.4944 0C7.8975 0 3.375 4.53375 3.375 10.125H0L4.38187 14.5069L4.46063 14.67L9 10.125H5.625C5.625 5.77687 9.15187 2.25 13.5 2.25C17.8481 2.25 21.375 5.77687 21.375 10.125C21.375 14.4731 17.8481 18 13.5 18C11.3231 18 9.36 17.1112 7.93688 15.6881L6.345 17.28C8.17312 19.1138 10.6987 20.25 13.4944 20.25C19.0912 20.25 23.625 15.7162 23.625 10.125C23.625 4.53375 19.0912 0 13.4944 0ZM12.375 5.625V11.25L17.19 14.1075L18 12.7406L14.0625 10.4062V5.625H12.375Z" fill="#A2D061"/>
</svg>
