<svg width="58" height="56" viewBox="0 0 58 56" fill="none" xmlns="http://www.w3.org/2000/svg">
<g filter="url(#filter0_d_1637_732)">
<rect x="6" y="2" width="45.4194" height="44" rx="9" fill="#A2D061"/>
</g>
<g clip-path="url(#clip0_1637_732)">
<path d="M39.9167 23.371L37.9772 21.4316L30.2495 13.6956C30.1414 13.5874 30.013 13.5017 29.8718 13.4431C29.7305 13.3846 29.5791 13.3545 29.4262 13.3545C29.2733 13.3545 29.1219 13.3846 28.9806 13.4431C28.8393 13.5017 28.711 13.5874 28.6028 13.6956L20.8635 21.4266L18.9191 23.371C18.8309 23.4656 18.783 23.5907 18.7852 23.72C18.7875 23.8493 18.8399 23.9726 18.9313 24.064C19.0227 24.1554 19.1461 24.2078 19.2753 24.2101C19.4046 24.2124 19.5297 24.1644 19.6243 24.0762L20.7171 22.9835V33.4806C20.7171 33.7894 20.8398 34.0855 21.0581 34.3039C21.2765 34.5222 21.5726 34.6449 21.8814 34.6449H26.4239C26.7327 34.6449 27.0289 34.5222 27.2472 34.3039C27.4656 34.0855 27.5882 33.7894 27.5882 33.4806V26.8274C27.5882 26.7832 27.6058 26.7409 27.637 26.7097C27.6681 26.6786 27.7105 26.661 27.7546 26.661H31.0812C31.1253 26.661 31.1676 26.6786 31.1988 26.7097C31.23 26.7409 31.2475 26.7832 31.2475 26.8274V33.4806C31.2475 33.7894 31.3702 34.0855 31.5885 34.3039C31.8069 34.5222 32.103 34.6449 32.4118 34.6449H36.9593C37.1122 34.6449 37.2636 34.6148 37.4049 34.5563C37.5461 34.4978 37.6745 34.412 37.7826 34.3039C37.8907 34.1958 37.9765 34.0674 38.035 33.9261C38.0935 33.7849 38.1236 33.6335 38.1236 33.4806V22.9884L39.2114 24.0762C39.306 24.1644 39.4311 24.2124 39.5604 24.2101C39.6897 24.2078 39.813 24.1554 39.9044 24.064C39.9959 23.9726 40.0482 23.8493 40.0505 23.72C40.0528 23.5907 40.0048 23.4656 39.9167 23.371ZM37.1256 33.4806C37.1256 33.5247 37.1081 33.567 37.0769 33.5982C37.0457 33.6294 37.0034 33.6469 36.9593 33.6469H32.4118C32.3677 33.6469 32.3254 33.6294 32.2942 33.5982C32.263 33.567 32.2455 33.5247 32.2455 33.4806V26.8274C32.2455 26.5186 32.1228 26.2224 31.9045 26.0041C31.6861 25.7857 31.39 25.663 31.0812 25.663H27.7546C27.4458 25.663 27.1496 25.7857 26.9313 26.0041C26.7129 26.2224 26.5903 26.5186 26.5903 26.8274V33.4806C26.5903 33.5247 26.5727 33.567 26.5415 33.5982C26.5103 33.6294 26.468 33.6469 26.4239 33.6469H21.8814C21.8373 33.6469 21.795 33.6294 21.7638 33.5982C21.7326 33.567 21.7151 33.5247 21.7151 33.4806V21.9871L29.2998 14.4008C29.3309 14.3698 29.3731 14.3524 29.417 14.3524C29.461 14.3524 29.5031 14.3698 29.5343 14.4008L37.124 21.9905L37.1256 33.4806Z" fill="white"/>
</g>
<defs>
<filter id="filter0_d_1637_732" x="0" y="0" width="57.418" height="56" filterUnits="userSpaceOnUse" color-interpolation-filters="sRGB">
<feFlood flood-opacity="0" result="BackgroundImageFix"/>
<feColorMatrix in="SourceAlpha" type="matrix" values="0 0 0 0 0 0 0 0 0 0 0 0 0 0 0 0 0 0 127 0" result="hardAlpha"/>
<feOffset dy="4"/>
<feGaussianBlur stdDeviation="3"/>
<feComposite in2="hardAlpha" operator="out"/>
<feColorMatrix type="matrix" values="0 0 0 0 0.635294 0 0 0 0 0.815686 0 0 0 0 0.380392 0 0 0 0.5 0"/>
<feBlend mode="normal" in2="BackgroundImageFix" result="effect1_dropShadow_1637_732"/>
<feBlend mode="normal" in="SourceGraphic" in2="effect1_dropShadow_1637_732" result="shape"/>
</filter>
<clipPath id="clip0_1637_732">
<rect width="21.2903" height="21.2903" fill="white" transform="translate(18.7734 13.3547)"/>
</clipPath>
</defs>
</svg>
