<svg width="18" height="18" viewBox="0 0 18 18" fill="none" xmlns="http://www.w3.org/2000/svg">
<g opacity="0.5" clip-path="url(#clip0_1145_14)">
<path d="M9 0.046875C4.05525 0.046875 0.046875 4.05525 0.046875 9C0.046875 13.9447 4.05525 17.9531 9 17.9531C13.9447 17.9531 17.9531 13.9447 17.9531 9C17.9531 4.05525 13.9447 0.046875 9 0.046875ZM9 16.461C4.8795 16.461 1.539 13.1205 1.539 9C1.539 4.8795 4.8795 1.539 9 1.539C13.1205 1.539 16.461 4.8795 16.461 9C16.461 13.1205 13.1205 16.461 9 16.461Z" fill="#241F20"/>
<path d="M9.45758 6.08773C9.67208 6.08773 9.86895 6.01198 10.0463 5.86048C10.2222 5.70898 10.3302 5.52523 10.3688 5.31073C10.4056 5.09473 10.3598 4.91248 10.2263 4.76098C10.0936 4.60798 9.91958 4.53223 9.70433 4.53223C9.48833 4.53223 9.29183 4.60798 9.11595 4.76098C8.9382 4.9121 8.8302 5.09473 8.79345 5.31073C8.76683 5.5256 8.8182 5.70898 8.94458 5.86048C9.07133 6.01198 9.24308 6.08773 9.45758 6.08773Z" fill="#241F20"/>
<path d="M11.1081 11.4002C11.0882 11.4283 11.0691 11.4527 11.0496 11.4812C10.9326 11.6297 10.4964 12.1543 9.93057 12.4682C9.92682 12.4697 9.92345 12.4712 9.92157 12.4735C9.87207 12.4997 9.82145 12.5196 9.7712 12.5428C9.62195 12.5965 9.48207 12.61 9.43707 12.6133C9.30995 12.5968 9.24095 12.508 9.24095 12.3396C9.24095 12.2005 9.28182 11.9256 9.36432 11.5127L9.4592 11.0961L9.84732 9.23308C9.91032 8.91583 9.94407 8.73958 9.95157 8.70471L10.0363 8.26896C10.0862 7.99933 10.1117 7.82121 10.1117 7.73421C10.1117 7.56771 10.0704 7.44133 10.0041 7.33858C9.99807 7.32358 9.9902 7.30858 9.97932 7.29283C9.96957 7.28083 9.95907 7.27033 9.94857 7.25946C9.93695 7.24671 9.93132 7.23583 9.91557 7.22271C9.7502 7.08771 9.5957 7.04871 9.4892 7.04008L9.49107 7.03708C9.49107 7.03708 8.79095 6.98421 7.7537 7.66783C7.7387 7.67758 7.7297 7.68471 7.71582 7.69408C7.43495 7.87183 7.21032 8.04996 7.0547 8.19358C6.93545 8.29558 6.84357 8.39046 6.77532 8.47933L6.77232 8.48346L6.7727 8.48308C6.6842 8.59971 6.6377 8.70546 6.6377 8.79921C6.6377 8.87308 6.6977 8.94696 6.8162 9.02083C6.8162 9.02083 7.2617 8.44558 8.01057 8.07133C8.06682 8.04696 8.21082 7.98733 8.33757 7.95433C8.39645 7.94083 8.5082 7.93033 8.57945 7.98921C8.63045 8.04246 8.6642 8.11633 8.6642 8.23146C8.6642 8.33608 8.64845 8.46321 8.61657 8.61508L8.54082 8.97396L8.4467 9.42246L8.07695 11.1955C7.88795 12.1112 7.79307 12.6591 7.79307 12.8376C7.79307 13.2587 8.0237 13.4695 8.4842 13.4695C8.69307 13.4695 8.90757 13.4316 9.1277 13.3641C9.1292 13.3641 9.12995 13.3648 9.13145 13.3656C9.14645 13.3603 9.16032 13.3547 9.17495 13.3495C9.21132 13.3378 9.24807 13.324 9.28445 13.3101C10.3236 12.9235 11.0076 12.1446 11.2142 11.8836C11.2326 11.8615 11.2483 11.8408 11.2629 11.821C11.2746 11.8048 11.2821 11.794 11.2821 11.794H11.2813C11.3338 11.7167 11.3627 11.6526 11.3627 11.6046C11.3619 11.5375 11.2753 11.4703 11.1081 11.4002Z" fill="#241F20"/>
</g>
<defs>
<clipPath id="clip0_1145_14">
<rect width="18" height="18" fill="white"/>
</clipPath>
</defs>
</svg>
