<svg width="25" height="25" viewBox="0 0 25 25" fill="none" xmlns="http://www.w3.org/2000/svg">
<rect x="1" y="1" width="23" height="23" rx="11.5" stroke="black" stroke-width="2"/>
<path d="M11.728 11.56L10.496 11.256V10.36H13.76V17.8L14.992 18.104V19H10.496V18.104L11.728 17.8V11.56ZM11.552 7.928C11.552 7.58667 11.6533 7.30933 11.856 7.096C12.0693 6.88267 12.3627 6.776 12.736 6.776C13.1093 6.776 13.4027 6.88267 13.616 7.096C13.8293 7.30933 13.936 7.58667 13.936 7.928C13.936 8.25867 13.8293 8.53067 13.616 8.744C13.4133 8.95733 13.12 9.064 12.736 9.064C12.352 9.064 12.0587 8.96267 11.856 8.76C11.6533 8.54667 11.552 8.26933 11.552 7.928Z" fill="black"/>
</svg>
