<svg width="30" height="30" viewBox="0 0 30 30" fill="none" xmlns="http://www.w3.org/2000/svg">
<g clip-path="url(#clip0_3311_1059)">
<path d="M29.0404 7.94997C28.7704 7.49997 28.4404 7.10997 28.0804 6.77997C27.9304 6.62997 27.7804 6.47997 27.6604 6.29997C27.5704 6.14997 27.4804 5.99997 27.4204 5.84997C27.3904 5.69997 27.3604 5.57997 27.3604 5.42997C27.3604 5.24997 27.3304 5.03997 27.3304 4.85997C27.1804 3.92997 26.4904 3.14997 25.5604 2.87997C25.1104 2.78997 24.6304 2.72997 24.1804 2.72997C24.0004 2.72997 23.8204 2.69997 23.6704 2.63997C23.5504 2.60997 23.4304 2.51997 23.3404 2.42997C23.2504 2.33997 23.1904 2.21997 23.1304 2.09997C23.0404 1.91997 22.9504 1.76997 22.8604 1.61997C22.6504 1.34997 22.4104 1.10997 22.0804 0.959971C21.7804 0.809971 21.4504 0.719971 21.1204 0.719971C20.8504 0.719971 20.5804 0.779971 20.3104 0.869971C20.1604 0.929971 20.0704 1.04997 20.0404 1.19997L19.5004 5.45997C19.3204 4.58997 19.0204 3.74997 18.6004 2.96997C18.5104 2.81997 18.4204 2.66997 18.3304 2.51997C18.2104 2.33997 18.0604 2.21997 17.8804 2.09997C17.5804 1.91997 17.2504 1.82997 16.8904 1.82997C16.8604 1.82997 16.8304 1.82997 16.7704 1.82997C16.5004 1.82997 16.2304 1.85997 15.9904 1.97997C15.6904 2.12997 15.4204 2.36997 15.2704 2.66997C15.0304 3.11997 14.9704 3.65997 15.1204 4.16997C15.2404 4.52997 15.4204 4.88997 15.6904 5.15997C15.9304 5.42997 16.2004 5.66997 16.5004 5.87997C16.6204 5.96997 16.7404 6.02997 16.8304 6.08997C16.5004 6.05997 16.1704 6.05997 15.8404 6.05997C15.3604 6.05997 14.8504 6.08997 14.3104 6.11997C12.8404 6.29997 9.30038 6.68997 6.15038 9.38997C4.80038 10.56 3.72038 11.97 2.94038 13.56C2.88038 13.68 2.79038 13.8 2.67038 13.86L1.38038 14.73C0.780379 15.15 0.630379 15.96 1.02038 16.56C1.14038 16.74 1.32038 16.89 1.50038 16.98L2.31038 17.4C2.49038 17.49 2.61038 17.67 2.67038 17.85C3.12038 20.13 4.20038 22.26 5.82038 23.94C7.62038 25.83 9.93038 27.12 12.4804 27.66C12.6004 27.69 12.6904 27.75 12.7804 27.81L13.6504 28.71C14.2504 29.34 15.2704 29.37 15.9004 28.77C15.9304 28.74 15.9304 28.74 15.9604 28.71L17.3404 27.24C17.4004 27.18 17.4604 27.15 17.5204 27.12C19.7104 25.86 21.5104 24.03 22.7104 21.81C23.8204 19.74 24.0604 17.55 24.0604 15.63C24.0604 14.58 24.0004 13.62 23.9404 12.78C23.9104 12.09 23.8204 11.52 23.7604 11.04C24.8404 10.2 26.1604 9.71997 27.5404 9.65997C27.8404 9.65997 28.1704 9.59997 28.4704 9.50997C28.6504 9.44997 28.8004 9.35997 28.9204 9.23997C29.0704 9.08997 29.1604 8.90997 29.2204 8.69997C29.2204 8.63997 29.2204 8.60997 29.2204 8.54997C29.1904 8.33997 29.1304 8.12997 29.0404 7.94997ZM16.3204 4.64997C16.1404 4.46997 16.0204 4.22997 15.9304 3.98997C15.8404 3.71997 15.8704 3.41997 16.0204 3.14997C16.0804 2.99997 16.2004 2.90997 16.3504 2.84997C16.5004 2.78997 16.6504 2.75997 16.8004 2.78997C16.8304 2.78997 16.8604 2.78997 16.8904 2.78997C17.0704 2.78997 17.2804 2.81997 17.4304 2.90997C17.5204 2.96997 17.5804 3.02997 17.6404 3.11997C17.7304 3.23997 17.7904 3.32997 17.8504 3.44997C18.2404 4.22997 18.5404 5.03997 18.7204 5.90997C18.7204 5.93997 18.7504 5.99997 18.7504 6.02997C18.6904 5.99997 18.6004 5.99997 18.5104 5.96997C18.0004 5.78997 17.4904 5.54997 17.0404 5.24997C16.7404 5.03997 16.5004 4.85997 16.3204 4.64997ZM15.1504 7.82997C15.2104 7.67997 15.3304 7.55997 15.4504 7.43997C15.6604 7.28997 15.9304 7.16997 16.2004 7.13997C16.5304 7.07997 16.8304 7.04997 17.1604 7.04997C17.1904 7.04997 17.2504 7.04997 17.2804 7.01997C18.0004 7.07997 18.7204 7.19997 19.4104 7.37997C19.4404 7.40997 19.4704 7.43997 19.4704 7.46997C19.1104 8.00997 18.6904 8.48997 18.2104 8.90997C17.9404 9.14997 17.6704 9.32997 17.3404 9.47997C17.1004 9.62997 16.8004 9.68997 16.5004 9.71997C16.2304 9.71997 15.9604 9.65997 15.6904 9.50997C15.4804 9.38997 15.3304 9.23997 15.2404 9.02997C15.1204 8.78997 15.0604 8.54997 15.0604 8.30997C15.0604 8.12997 15.0904 7.97997 15.1504 7.82997ZM21.9004 21.45C20.7604 23.52 19.0804 25.26 17.0404 26.43C16.9204 26.52 16.7704 26.61 16.6804 26.73C16.2304 27.21 15.7504 27.72 15.3004 28.2C15.0304 28.5 14.5804 28.5 14.2804 28.23L14.2504 28.2L13.8304 27.75H13.8604C14.1004 27.75 14.2804 27.54 14.2804 27.3C14.2804 27.06 14.0704 26.88 13.8304 26.88C13.7704 26.88 13.7404 26.88 13.6804 26.88C13.4104 26.88 13.1404 26.85 12.8704 26.82C12.7804 26.82 12.6904 26.82 12.6004 26.85C10.2604 26.34 8.10038 25.14 6.42038 23.4C4.92038 21.84 3.93038 19.86 3.51038 17.73C3.42038 17.28 3.12038 16.89 2.73038 16.68C2.46038 16.53 2.19038 16.38 1.92038 16.26C1.83038 16.23 1.77038 16.17 1.74038 16.08C1.71038 16.02 1.68038 15.93 1.68038 15.84C1.68038 15.69 1.74038 15.54 1.89038 15.45C2.31038 15.15 2.76038 14.88 3.18038 14.58C3.42038 14.43 3.60038 14.19 3.75038 13.95C4.47038 12.45 5.52038 11.13 6.75038 10.05C9.69038 7.52997 12.9904 7.16997 14.4304 7.01997C14.5204 7.01997 14.6104 7.01997 14.7004 6.98997C14.5804 7.13997 14.4904 7.28997 14.4004 7.43997C14.2804 7.67997 14.2204 7.97997 14.2204 8.24997C14.2204 8.63997 14.3104 9.02997 14.4904 9.38997C14.6704 9.74997 14.9704 10.05 15.3004 10.23C15.6604 10.41 16.0804 10.53 16.5004 10.53C16.9204 10.53 17.3404 10.44 17.7304 10.23C18.3004 9.95997 18.8104 9.56997 19.2604 9.11997C19.5604 8.81997 19.8304 8.48997 20.0704 8.12997C20.4604 8.57997 20.8804 9.05997 21.3604 9.53997C21.8704 10.05 22.3804 10.53 22.8604 10.95C22.9204 11.43 23.0104 12.06 23.0704 12.84C23.1304 13.68 23.1904 14.61 23.1904 15.63C23.1604 17.49 22.9204 19.53 21.9004 21.45ZM28.3204 8.57997C28.3204 8.60997 28.3204 8.63997 28.2904 8.63997C28.2004 8.69997 28.1104 8.75997 27.9904 8.75997C27.8104 8.78997 27.6304 8.81997 27.4804 8.81997C25.9804 8.87997 24.5704 9.38997 23.3704 10.26C22.9204 9.86997 22.4404 9.44997 21.9604 8.96997C21.3304 8.33997 20.7304 7.64997 20.1604 6.92997C20.4004 5.15997 20.6104 3.38997 20.8504 1.61997C20.9404 1.58997 21.0004 1.58997 21.0904 1.58997C21.3004 1.58997 21.4804 1.64997 21.6604 1.73997C21.8404 1.82997 21.9904 1.94997 22.1104 2.09997C22.2004 2.24997 22.2604 2.39997 22.3504 2.51997C22.4404 2.69997 22.5604 2.87997 22.7104 3.02997C22.7404 3.05997 22.7704 3.05997 22.8004 3.08997C22.4404 3.53997 22.1404 4.01997 21.8404 4.49997C21.7204 4.70997 21.7804 4.97997 21.9904 5.09997C22.2004 5.21997 22.4704 5.15997 22.5904 4.94997C22.8604 4.46997 23.1904 4.01997 23.5204 3.59997C23.5504 3.56997 23.5504 3.53997 23.5804 3.50997C23.8804 3.56997 24.1804 3.62997 24.4804 3.62997C24.7804 3.62997 25.0804 3.65997 25.3804 3.71997C25.9804 3.89997 26.4004 4.37997 26.5204 4.97997C26.5504 5.12997 26.5504 5.30997 26.5504 5.45997C26.5504 5.54997 26.5504 5.66997 26.5804 5.78997C26.5504 5.78997 26.5204 5.81997 26.5204 5.81997C25.8004 6.29997 25.1104 6.77997 24.3604 7.22997C24.1504 7.34997 24.0904 7.61997 24.2104 7.82997C24.3304 8.03997 24.6004 8.09997 24.8104 7.97997H24.8404C25.5304 7.52997 26.2204 7.07997 26.8804 6.62997C26.9104 6.68997 26.9704 6.74997 27.0004 6.80997C27.2404 7.10997 27.4804 7.37997 27.7504 7.61997C27.9604 7.82997 28.1704 8.06997 28.3204 8.33997C28.2904 8.39997 28.3204 8.48997 28.3204 8.57997Z" fill="#A2D061"/>
<path d="M16.4403 12.0601C16.1403 12.3001 15.8403 12.5701 15.5403 12.8401C15.0903 12.5401 14.5203 12.3901 13.9803 12.3601C13.8903 12.3601 13.8003 12.3601 13.7103 12.3601C13.0503 12.4201 12.4203 12.7201 11.9403 13.1701C11.7003 13.3801 11.5203 13.6201 11.3703 13.9201C11.2203 14.1901 11.1603 14.4901 11.1303 14.7901V14.8201C11.1303 15.2401 11.2803 15.6601 11.5503 16.0201C11.7903 16.3501 12.0303 16.6201 12.3003 16.9201C12.5703 17.1901 12.8703 17.4601 13.2003 17.6701C13.4103 17.8201 13.5903 18.0001 13.7103 18.2101C13.9203 18.5101 14.0403 18.8401 14.0703 19.2001C14.0703 19.2901 14.0703 19.3501 14.0403 19.4401C13.9803 19.6801 13.8603 19.9201 13.6803 20.1001C13.5303 20.2501 13.3803 20.3701 13.2003 20.4601C12.8403 20.6701 12.4203 20.7901 11.9703 20.7901C11.8503 20.7901 11.7603 20.7901 11.6403 20.7601C11.1603 20.6701 10.7103 20.4601 10.3503 20.1001C9.99026 19.7701 9.75026 19.3501 9.60026 18.9001C9.51026 18.6601 9.48026 18.3901 9.48026 18.1201C9.48026 17.7301 9.57026 17.3701 9.69026 17.0101C9.78026 16.8001 9.69026 16.5301 9.48026 16.4401C9.27026 16.3501 9.00026 16.4401 8.91026 16.6501V16.6801C8.73026 17.1301 8.64026 17.6101 8.64026 18.0901C8.64026 18.4501 8.70026 18.7801 8.79026 19.1101C8.91026 19.5001 9.09026 19.8601 9.33026 20.1901C9.09026 20.4601 8.88026 20.7301 8.67026 21.0001C8.52026 21.1801 8.55026 21.4501 8.73026 21.6001C8.91026 21.7501 9.18026 21.7201 9.33026 21.5401C9.51026 21.3001 9.69026 21.0601 9.90026 20.8501C10.3503 21.2401 10.9203 21.5101 11.4903 21.6001C11.6403 21.6301 11.7903 21.6301 11.9403 21.6301C12.5403 21.6301 13.1103 21.4801 13.6203 21.1501C13.8603 21.0001 14.0703 20.8501 14.2503 20.6701C14.5503 20.3701 14.7603 20.0101 14.8503 19.5901C14.8803 19.4401 14.8803 19.3201 14.8803 19.1701C14.8503 18.6601 14.7003 18.1501 14.4003 17.7301C14.2203 17.4301 13.9503 17.1601 13.6503 16.9501C13.3803 16.7701 13.1103 16.5601 12.8703 16.2901C12.6303 16.0501 12.3903 15.7801 12.2103 15.5101C12.0603 15.3001 11.9703 15.0601 11.9403 14.7901V14.7601C11.9403 14.5801 12.0003 14.4001 12.0903 14.2501C12.2403 13.9501 12.4803 13.7101 12.7503 13.5301C13.0503 13.3201 13.3803 13.2001 13.7403 13.1701C13.8003 13.1701 13.8603 13.1701 13.9203 13.1701C14.5803 13.1701 15.2103 13.5001 15.6003 14.0701C15.8403 14.4001 15.9603 14.7901 15.9603 15.2101C15.9603 15.5101 15.9003 15.8101 15.8103 16.0801C15.7203 16.2901 15.8103 16.5601 16.0203 16.6501C16.2303 16.7401 16.5003 16.6501 16.5903 16.4401C16.7403 16.0501 16.8303 15.6301 16.8303 15.2401C16.8303 14.6701 16.6503 14.1001 16.3203 13.6201C16.2603 13.5301 16.2003 13.4701 16.1403 13.4101C16.3803 13.1701 16.6503 12.9601 16.9203 12.7501C17.1003 12.6001 17.1303 12.3301 17.0103 12.1501C16.8903 11.9401 16.6203 11.9101 16.4403 12.0601Z" fill="#A2D061"/>
</g>
<defs>
<clipPath id="clip0_3311_1059">
<rect width="30" height="30" fill="white"/>
</clipPath>
</defs>
</svg>
