<svg width="23" height="22" viewBox="0 0 23 22" fill="none" xmlns="http://www.w3.org/2000/svg">
<g clip-path="url(#clip0_2382_728)">
<path d="M21.9167 10.3715L19.9772 8.43208L12.2495 0.696042C12.1414 0.587913 12.013 0.50214 11.8718 0.44362C11.7305 0.3851 11.5791 0.35498 11.4262 0.35498C11.2733 0.35498 11.1219 0.3851 10.9806 0.44362C10.8393 0.50214 10.711 0.587913 10.6028 0.696042L2.86349 8.42709L0.91908 10.3715C0.830938 10.4661 0.782953 10.5912 0.785234 10.7205C0.787515 10.8497 0.839884 10.9731 0.931308 11.0645C1.02273 11.1559 1.14607 11.2083 1.27535 11.2106C1.40462 11.2129 1.52973 11.1649 1.62432 11.0767L2.71711 9.98394V20.4811C2.71711 20.7899 2.83978 21.086 3.05813 21.3044C3.27649 21.5227 3.57263 21.6454 3.88143 21.6454H8.42392C8.73271 21.6454 9.02886 21.5227 9.24721 21.3044C9.46557 21.086 9.58823 20.7899 9.58823 20.4811V13.8278C9.58823 13.7837 9.60576 13.7414 9.63695 13.7102C9.66814 13.679 9.71045 13.6615 9.75456 13.6615H13.0812C13.1253 13.6615 13.1676 13.679 13.1988 13.7102C13.23 13.7414 13.2475 13.7837 13.2475 13.8278V20.4811C13.2475 20.7899 13.3702 21.086 13.5885 21.3044C13.8069 21.5227 14.103 21.6454 14.4118 21.6454H18.9593C19.1122 21.6454 19.2636 21.6153 19.4049 21.5568C19.5461 21.4982 19.6745 21.4125 19.7826 21.3044C19.8907 21.1962 19.9765 21.0679 20.035 20.9266C20.0935 20.7854 20.1236 20.634 20.1236 20.4811V9.98893L21.2114 11.0767C21.306 11.1649 21.4311 11.2129 21.5604 11.2106C21.6897 11.2083 21.813 11.1559 21.9044 11.0645C21.9959 10.9731 22.0482 10.8497 22.0505 10.7205C22.0528 10.5912 22.0048 10.4661 21.9167 10.3715ZM19.1256 20.4811C19.1256 20.5252 19.1081 20.5675 19.0769 20.5987C19.0457 20.6299 19.0034 20.6474 18.9593 20.6474H14.4118C14.3677 20.6474 14.3254 20.6299 14.2942 20.5987C14.263 20.5675 14.2455 20.5252 14.2455 20.4811V13.8278C14.2455 13.5191 14.1228 13.2229 13.9045 13.0046C13.6861 12.7862 13.39 12.6635 13.0812 12.6635H9.75456C9.44577 12.6635 9.14962 12.7862 8.93127 13.0046C8.71292 13.2229 8.59025 13.5191 8.59025 13.8278V20.4811C8.59025 20.5252 8.57273 20.5675 8.54153 20.5987C8.51034 20.6299 8.46803 20.6474 8.42392 20.6474H3.88143C3.83732 20.6474 3.79501 20.6299 3.76382 20.5987C3.73262 20.5675 3.7151 20.5252 3.7151 20.4811V8.98762L11.2998 1.40128C11.3309 1.3703 11.3731 1.35292 11.417 1.35292C11.461 1.35292 11.5031 1.3703 11.5343 1.40128L19.124 8.99095L19.1256 20.4811Z" fill="white"/>
</g>
<defs>
<clipPath id="clip0_2382_728">
<rect width="21.2903" height="21.2903" fill="white" transform="translate(0.773438 0.35498)"/>
</clipPath>
</defs>
</svg>
