<svg width="20" height="23" viewBox="0 0 20 23" fill="none" xmlns="http://www.w3.org/2000/svg">
<path d="M17.7295 0H2.28716C1.03096 0 0 0.92848 0 2.08721V20.124C0 21.2828 1.03096 22.2315 2.28716 22.2315H11.3634C11.6113 22.2315 11.849 22.1377 12.0242 21.976L19.7302 14.863C19.9054 14.7013 20 14.4805 20 14.2519V2.08722C20 0.92848 18.9857 0 17.7295 0ZM1.86704 20.124V2.08721C1.86704 1.87907 2.06156 1.72216 2.28716 1.72216H17.7295C17.9551 1.72216 18.1329 1.87907 18.1329 2.08721V12.9684H12.2398C10.9836 12.9684 9.95757 13.9016 9.95757 15.0604V20.5094H2.28716C2.06156 20.5094 1.86704 20.3321 1.86704 20.124ZM11.8246 19.7134V15.0604C11.8246 14.8522 12.0142 14.6906 12.2398 14.6906H17.2843L11.8246 19.7134Z" fill="#A2D061"/>
</svg>
