<svg width="1430" height="529" viewBox="0 0 1430 529" fill="none" xmlns="http://www.w3.org/2000/svg">
<g clip-path="url(#clip0_2174_1048)">
<rect width="1430" height="529" rx="30" fill="#F65275"/>
<circle cx="1416.85" cy="465.308" r="55" transform="rotate(-23.3757 1416.85 465.308)" fill="white" fill-opacity="0.1"/>
<circle cx="1369.19" cy="509.786" r="55" transform="rotate(-23.3757 1369.19 509.786)" fill="white" fill-opacity="0.1"/>
<circle cx="722.365" cy="81.4798" r="16.3383" transform="rotate(-23.3757 722.365 81.4798)" fill="white" fill-opacity="0.1"/>
<circle cx="735.365" cy="68.4798" r="16.3383" transform="rotate(-23.3757 735.365 68.4798)" fill="white" fill-opacity="0.1"/>
<circle cx="488.067" cy="460.181" r="14.59" transform="rotate(-23.3757 488.067 460.181)" fill="white" fill-opacity="0.1"/>
<circle cx="1186.07" cy="36.1809" r="14.59" transform="rotate(-23.3757 1186.07 36.1809)" fill="white" fill-opacity="0.1"/>
<circle cx="390.386" cy="85.5" r="17.5" fill="white" fill-opacity="0.1"/>
<circle cx="407.386" cy="94.5" r="17.5" fill="white" fill-opacity="0.1"/>
<circle cx="54.4945" cy="6.27686" r="39.5" transform="rotate(24.3628 54.4945 6.27686)" fill="white" fill-opacity="0.1"/>
<circle cx="19.2767" cy="33.1411" r="39.5" transform="rotate(24.3628 19.2767 33.1411)" fill="white" fill-opacity="0.1"/>
</g>
<defs>
<clipPath id="clip0_2174_1048">
<rect width="1430" height="529" rx="30" fill="white"/>
</clipPath>
</defs>
</svg>
