<svg width="20" height="20" viewBox="0 0 20 20" fill="none" xmlns="http://www.w3.org/2000/svg">
<g id="Frame">
<path id="Vector" d="M15.3904 18.7501C15.2589 18.7506 15.1305 18.7096 15.0236 18.6329L9.99982 14.9907L4.97599 18.6329C4.86866 18.7108 4.73936 18.7525 4.60677 18.752C4.47418 18.7515 4.34518 18.7089 4.23842 18.6302C4.13165 18.5516 4.05266 18.4411 4.01286 18.3146C3.97306 18.1881 3.97451 18.0523 4.01701 17.9267L5.97639 12.1232L0.89826 8.64073C0.788264 8.56539 0.705246 8.45684 0.661335 8.33095C0.617423 8.20506 0.61492 8.06843 0.654191 7.94102C0.693463 7.8136 0.77245 7.70209 0.879612 7.62276C0.986774 7.54344 1.1165 7.50046 1.24982 7.50011H7.51467L9.40529 1.68175C9.44602 1.55613 9.52549 1.44664 9.6323 1.36899C9.73911 1.29134 9.86777 1.24951 9.99982 1.24951C10.1319 1.24951 10.2605 1.29134 10.3673 1.36899C10.4742 1.44664 10.5536 1.55613 10.5944 1.68175L12.485 7.50206H18.7498C18.8833 7.502 19.0133 7.54467 19.1208 7.62385C19.2283 7.70302 19.3076 7.81453 19.3471 7.94204C19.3866 8.06955 19.3843 8.20636 19.3404 8.33244C19.2966 8.45852 19.2135 8.56724 19.1033 8.64269L14.0233 12.1232L15.9815 17.9251C16.0132 18.019 16.0221 18.1192 16.0075 18.2172C15.9929 18.3153 15.9551 18.4085 15.8974 18.4891C15.8397 18.5697 15.7636 18.6354 15.6754 18.6808C15.5873 18.7262 15.4896 18.7499 15.3904 18.7501Z" fill="#A2D061"/>
</g>
</svg>
