<svg width="34" height="34" viewBox="0 0 34 34" fill="none" xmlns="http://www.w3.org/2000/svg">
<g clip-path="url(#clip0_1731_1107)">
<path d="M31.1432 28.8999H2.85522C2.21678 28.8999 1.69922 29.4175 1.69922 30.0559V32.2772C1.69922 32.9157 2.21678 33.4332 2.85522 33.4332H31.1432C31.7817 33.4332 32.2992 32.9157 32.2992 32.2772V30.0559C32.2992 29.4175 31.7817 28.8999 31.1432 28.8999Z" stroke="#5E5E5E" stroke-linecap="round" stroke-linejoin="round"/>
<path d="M8.49818 10.7666H3.96484V28.8999H8.49818V10.7666Z" stroke="#5E5E5E" stroke-linecap="round" stroke-linejoin="round"/>
<path d="M19.2677 10.7666H14.7344V28.8999H19.2677V10.7666Z" stroke="#5E5E5E" stroke-linecap="round" stroke-linejoin="round"/>
<path d="M30.0333 10.7666H25.5V28.8999H30.0333V10.7666Z" stroke="#5E5E5E" stroke-linecap="round" stroke-linejoin="round"/>
<path d="M0.566406 10.7667L16.9997 0.56665" stroke="#5E5E5E" stroke-linecap="round" stroke-linejoin="round"/>
<path d="M17 0.56665L33.4333 10.7667" stroke="#5E5E5E" stroke-linecap="round" stroke-linejoin="round"/>
<path d="M0.566406 10.7666H33.4331" stroke="#5E5E5E" stroke-linecap="round" stroke-linejoin="round"/>
</g>
<defs>
<clipPath id="clip0_1731_1107">
<rect width="34" height="34" fill="white"/>
</clipPath>
</defs>
</svg>
