<svg width="17" height="17" viewBox="0 0 17 17" fill="none" xmlns="http://www.w3.org/2000/svg">
<path d="M8.2092 4.80249C6.21024 4.80249 4.55396 6.43022 4.55396 8.45773C4.55396 10.4853 6.18168 12.113 8.2092 12.113C10.2367 12.113 11.8644 10.4567 11.8644 8.45773C11.8644 6.45877 10.2082 4.80249 8.2092 4.80249ZM8.2092 10.7994C6.92415 10.7994 5.86756 9.74278 5.86756 8.45773C5.86756 7.17269 6.92415 6.11609 8.2092 6.11609C9.49425 6.11609 10.5508 7.17269 10.5508 8.45773C10.5508 9.74278 9.49425 10.7994 8.2092 10.7994Z" fill="white"/>
<path d="M12.0073 5.54495C12.4647 5.54495 12.8355 5.17418 12.8355 4.71681C12.8355 4.25944 12.4647 3.88867 12.0073 3.88867C11.55 3.88867 11.1792 4.25944 11.1792 4.71681C11.1792 5.17418 11.55 5.54495 12.0073 5.54495Z" fill="white"/>
<path d="M14.149 2.57512C13.4065 1.80409 12.3499 1.4043 11.1506 1.4043H5.2679C2.78348 1.4043 1.1272 3.06058 1.1272 5.545V11.3991C1.1272 12.627 1.52699 13.6836 2.32657 14.4547C3.0976 15.1971 4.12564 15.5684 5.29646 15.5684H11.122C12.3499 15.5684 13.378 15.1686 14.1204 14.4547C14.8915 13.7122 15.2913 12.6556 15.2913 11.4277V5.545C15.2913 4.34563 14.8915 3.31759 14.149 2.57512ZM14.0348 11.4277C14.0348 12.3129 13.7207 13.0268 13.2066 13.5123C12.6926 13.9978 11.9787 14.2548 11.122 14.2548H5.29646C4.43976 14.2548 3.72585 13.9978 3.21183 13.5123C2.69781 12.9983 2.4408 12.2844 2.4408 11.3991V5.545C2.4408 4.6883 2.69781 3.97439 3.21183 3.46037C3.69729 2.97491 4.43976 2.7179 5.29646 2.7179H11.1791C12.0358 2.7179 12.7497 2.97491 13.2637 3.48893C13.7492 4.00295 14.0348 4.71686 14.0348 5.545V11.4277Z" fill="white"/>
</svg>
