<svg width="15" height="15" viewBox="0 0 15 15" fill="none" xmlns="http://www.w3.org/2000/svg">
<path d="M0.545166 7.47655V14.1387H3.96542V6.92726V4.91602H0.545166V7.47655Z" fill="white"/>
<path d="M11.2125 4.95838C9.81493 4.95838 8.87197 5.55206 8.47774 6.1245H8.35371V4.91602H5.83691V6.80043V14.1387H8.67637V9.66531C8.67637 8.46509 8.79356 7.30774 10.2857 7.30774C11.7856 7.30774 11.774 8.67638 11.774 9.74965V14.1387H14.6135V9.17504C14.6135 8.70163 14.6277 8.22441 14.5764 7.81867C14.3621 6.07807 13.5961 4.95838 11.2125 4.95838Z" fill="white"/>
<path d="M2.34758 0.445801C1.44741 0.445801 0.718506 1.16409 0.718506 2.05144C0.718506 2.93885 1.44741 3.65694 2.34758 3.65694C3.24782 3.65694 3.9764 2.93885 3.9764 2.05144C3.97633 1.16409 3.24775 0.445801 2.34758 0.445801Z" fill="white"/>
</svg>
