<svg width="17" height="17" viewBox="0 0 17 17" fill="none" xmlns="http://www.w3.org/2000/svg">
<g clip-path="url(#clip0_2567_735)">
<path d="M16.5889 4.46467C16.4027 3.76799 15.8541 3.21941 15.1574 3.0332C13.8946 2.69482 8.83139 2.69482 8.83139 2.69482C8.83139 2.69482 3.76813 2.69482 2.50532 3.0332C1.80876 3.21941 1.26005 3.76799 1.07388 4.46467C0.735596 5.72736 0.735596 8.36198 0.735596 8.36198C0.735596 8.36198 0.735596 10.9965 1.07388 12.2591C1.26005 12.9558 1.80876 13.5045 2.50532 13.6907C3.76813 14.0289 8.83139 14.0289 8.83139 14.0289C8.83139 14.0289 13.8946 14.0289 15.1574 13.6907C15.8541 13.5045 16.4027 12.9558 16.5889 12.2591C16.9272 10.9965 16.9272 8.36198 16.9272 8.36198C16.9272 8.36198 16.9272 5.72736 16.5889 4.46467ZM7.21214 10.7907V5.93317L11.4188 8.36198L7.21214 10.7907Z" fill="white"/>
</g>
<defs>
<clipPath id="clip0_2567_735">
<rect width="16.1916" height="16.1916" fill="white" transform="translate(0.735596 0.266357)"/>
</clipPath>
</defs>
</svg>
